<svg width="24" height="25" viewBox="0 0 24 25" fill="none" xmlns="http://www.w3.org/2000/svg">
<path d="M12 3.05738C17.3483 3.05738 21.6774 7.38566 21.6774 12.7348C21.6774 18.0831 17.3491 22.4122 12 22.4122C6.65168 22.4122 2.32258 18.0839 2.32258 12.7348C2.32258 7.38648 6.65085 3.05738 12 3.05738ZM12 0.734802C5.37256 0.734802 0 6.10737 0 12.7348C0 19.3622 5.37256 24.7348 12 24.7348C18.6274 24.7348 24 19.3622 24 12.7348C24 6.10737 18.6274 0.734802 12 0.734802ZM12 8.86383C9.86211 8.86383 8.12903 10.5969 8.12903 12.7348C8.12903 14.8727 9.86211 16.6058 12 16.6058C14.1379 16.6058 15.871 14.8727 15.871 12.7348C15.871 10.5969 14.1379 8.86383 12 8.86383Z" fill="black"/>
</svg>
